<svg width="46" height="52" fill="none" xmlns="http://www.w3.org/2000/svg"><path d="M39.655 0c3.235 0 5.607 3.028 4.962 6.197-2.889 14.191-2.838 24.537.104 39.694.61 3.142-1.758 6.109-4.958 6.109H6.735c-3.354 0-5.745-3.24-4.914-6.49 3.618-14.156 3.616-24.433-.055-39.062C.953 3.212 3.343 0 6.68 0h32.975Z" fill="#000" fill-opacity=".9"/><path d="M31.016 27.406h-6.61v6.597a.994.994 0 0 1-.982.997h-.846a.996.996 0 0 1-.984-.997v-6.597h-6.61a.984.984 0 0 1-.984-.982v-.851c0-.543.442-.98.985-.98h6.61v-6.621c0-.543.44-.973.984-.973h.845c.543 0 .983.43.983.973v6.621h6.609c.543 0 .985.437.985.98v.85a.984.984 0 0 1-.985.983Z" fill="#fff" fill-opacity=".9"/></svg>