<svg width="46" height="52" viewBox="0 0 46 52" fill="none" xmlns="http://www.w3.org/2000/svg">
<path d="M39.6554 -2.77333e-07C42.8896 -1.35959e-07 45.2621 3.02774 44.617 6.197C41.7284 20.3882 41.7791 30.7344 44.7208 45.8914C45.3305 49.0327 42.9632 52 39.7633 52L6.73523 52C3.38144 52 0.990225 48.7599 1.82073 45.5106C5.43898 31.3542 5.43734 21.0773 1.76564 6.44843C0.953205 3.21151 3.34267 -1.86461e-06 6.68 -1.71873e-06L39.6554 -2.77333e-07Z" fill="black" fill-opacity="0.9"/>
<path d="M31.0157 27.4057H31.0167H24.4069V34.0031C24.4069 34.546 23.9673 35 23.4243 35H22.5785C22.0357 35 21.5942 34.546 21.5942 34.0031V27.4057H14.9845C14.4418 27.4057 14 26.9666 14 26.4235V25.5729C14 25.0302 14.4417 24.5931 14.9845 24.5931H21.5943V17.9719C21.5943 17.4292 22.0357 16.9989 22.5787 16.9989H23.4244C23.9674 16.9989 24.4071 17.4293 24.4071 17.9719V24.5931H31.0157C31.5587 24.5931 32.0012 25.0304 32.0012 25.5729V26.4235C32.0012 26.9666 31.5587 27.4057 31.0157 27.4057Z" fill="white" fill-opacity="0.9"/>
</svg>
