<svg width="152" height="60" fill="none" xmlns="http://www.w3.org/2000/svg"><path d="M0 2.28C0 1.073 1.081.143 2.28.299c56.553 7.33 89.616 7.252 147.448-.01C150.924.137 152 1.065 152 2.27v55.521c0 1.183-1.038 2.105-2.215 1.99-57.215-5.583-90.29-5.65-147.568-.002C1.04 59.896 0 58.973 0 57.79V2.28Z" fill="#000"/><path d="M27.42 37.2c-1.107 0-2.047-.2-2.82-.6-.773-.4-1.467-.987-2.08-1.76l1.56-1.56c.387.56.847 1 1.38 1.32.533.307 1.213.46 2.04.46.773 0 1.387-.16 1.84-.48.467-.32.7-.76.7-1.32 0-.467-.12-.847-.36-1.14a2.678 2.678 0 0 0-.96-.72c-.387-.2-.82-.373-1.3-.52-.467-.16-.94-.333-1.42-.52a6.56 6.56 0 0 1-1.3-.74 3.297 3.297 0 0 1-.94-1.14c-.24-.467-.36-1.06-.36-1.78 0-.827.2-1.527.6-2.1a3.926 3.926 0 0 1 1.66-1.34c.693-.307 1.467-.46 2.32-.46.92 0 1.74.18 2.46.54.733.36 1.327.82 1.78 1.38l-1.56 1.56c-.4-.453-.82-.787-1.26-1-.427-.227-.92-.34-1.48-.34-.693 0-1.24.14-1.64.42-.387.28-.58.673-.58 1.18 0 .427.12.773.36 1.04.24.253.553.473.94.66.4.173.833.34 1.3.5.48.16.953.34 1.42.54.48.2.913.46 1.3.78.4.307.72.707.96 1.2s.36 1.113.36 1.86c0 1.253-.447 2.247-1.34 2.98-.88.733-2.073 1.1-3.58 1.1Zm7.213-.2V23h2.3v14h-2.3Zm8.9 0V23h2.3v14h-2.3Zm-7.32-6.2v-2.1h7.82v2.1h-7.82Zm19.099 6.4c-1 0-1.934-.187-2.8-.56a7.245 7.245 0 0 1-2.28-1.54 7.488 7.488 0 0 1-1.54-2.3c-.36-.88-.54-1.82-.54-2.82 0-1 .18-1.933.54-2.8a7.419 7.419 0 0 1 1.52-2.28 6.878 6.878 0 0 1 2.26-1.54c.866-.373 1.8-.56 2.8-.56 1 0 1.926.187 2.78.56.866.36 1.626.873 2.28 1.54a6.922 6.922 0 0 1 1.52 2.3c.373.867.56 1.8.56 2.8 0 1-.187 1.94-.56 2.82a6.974 6.974 0 0 1-1.52 2.28 7.012 7.012 0 0 1-2.26 1.54 6.81 6.81 0 0 1-2.76.56Zm-.04-2.2c.946 0 1.773-.213 2.48-.64a4.446 4.446 0 0 0 1.68-1.76c.413-.76.62-1.633.62-2.62 0-.733-.12-1.4-.36-2a4.459 4.459 0 0 0-.98-1.58 4.295 4.295 0 0 0-1.52-1.04c-.574-.24-1.214-.36-1.92-.36-.934 0-1.76.213-2.48.64a4.488 4.488 0 0 0-1.68 1.74c-.4.747-.6 1.613-.6 2.6 0 .733.113 1.413.34 2.04.24.613.566 1.14.98 1.58.426.44.933.787 1.52 1.04.586.24 1.226.36 1.92.36Zm11.059-3.28v-2h3.5c.48 0 .9-.093 1.26-.28.373-.2.666-.473.88-.82.213-.36.32-.78.32-1.26s-.107-.893-.32-1.24a2.09 2.09 0 0 0-.88-.82c-.36-.2-.78-.3-1.26-.3h-3.5v-2h3.62c.88 0 1.666.18 2.36.54.706.36 1.26.867 1.66 1.52.413.653.62 1.42.62 2.3 0 .88-.207 1.647-.62 2.3-.4.653-.954 1.16-1.66 1.52-.694.36-1.48.54-2.36.54h-3.62ZM64.75 37V23h2.3v14h-2.3Zm15.722 0V23h1.6l.7 2.64V37h-2.3Zm9.7 0-8.38-10.94.28-3.06 8.38 10.94-.28 3.06Zm0 0-.7-2.46V23h2.3v14h-1.6Zm11.076.2c-1 0-1.933-.187-2.8-.56a7.245 7.245 0 0 1-2.28-1.54 7.488 7.488 0 0 1-1.54-2.3c-.36-.88-.54-1.82-.54-2.82 0-1 .18-1.933.54-2.8a7.419 7.419 0 0 1 1.52-2.28 6.878 6.878 0 0 1 2.26-1.54c.867-.373 1.8-.56 2.8-.56 1 0 1.927.187 2.78.56.867.36 1.627.873 2.28 1.54a6.927 6.927 0 0 1 1.52 2.3c.373.867.56 1.8.56 2.8 0 1-.187 1.94-.56 2.82a6.979 6.979 0 0 1-1.52 2.28 7.007 7.007 0 0 1-2.26 1.54 6.808 6.808 0 0 1-2.76.56Zm-.04-2.2c.947 0 1.773-.213 2.48-.64a4.446 4.446 0 0 0 1.68-1.76c.413-.76.62-1.633.62-2.62 0-.733-.12-1.4-.36-2a4.457 4.457 0 0 0-.98-1.58 4.294 4.294 0 0 0-1.52-1.04c-.573-.24-1.213-.36-1.92-.36-.933 0-1.76.213-2.48.64a4.488 4.488 0 0 0-1.68 1.74c-.4.747-.6 1.613-.6 2.6 0 .733.113 1.413.34 2.04.24.613.567 1.14.98 1.58.427.44.933.787 1.52 1.04.587.24 1.227.36 1.92.36Zm12.474 2-4.6-14h2.26l3.46 10.78h-.6l3.38-10.78h1.6l3.38 10.78h-.6l3.46-10.78h2.26l-4.6 14h-1.6l-3.4-10.76h.6l-3.4 10.76h-1.6Z" fill="#fff" fill-opacity=".9"/></svg>