<svg width="46" height="52" viewBox="0 0 46 52" fill="none" xmlns="http://www.w3.org/2000/svg">
<path d="M39.6554 1C42.2293 1 44.1616 3.42043 43.6371 5.99754C40.7202 20.3273 40.7744 30.8065 43.7392 46.082C44.2333 48.6277 42.3125 51 39.7633 51L6.73523 51C4.0692 51 2.11194 48.4095 2.78958 45.7582C6.45012 31.4364 6.4466 20.9906 2.73556 6.205C2.0736 3.5676 4.02607 0.999998 6.68 0.999998L39.6554 1Z" stroke="black" stroke-width="2"/>
<path d="M31.0157 27.4057H31.0167H24.4069V34.0031C24.4069 34.546 23.9673 35 23.4243 35H22.5785C22.0357 35 21.5942 34.546 21.5942 34.0031V27.4057H14.9845C14.4418 27.4057 14 26.9666 14 26.4235V25.5729C14 25.0302 14.4417 24.5931 14.9845 24.5931H21.5943V17.9719C21.5943 17.4292 22.0357 16.9989 22.5787 16.9989H23.4244C23.9674 16.9989 24.4071 17.4293 24.4071 17.9719V24.5931H31.0157C31.5587 24.5931 32.0012 25.0304 32.0012 25.5729V26.4235C32.0012 26.9666 31.5587 27.4057 31.0157 27.4057Z" fill="black" fill-opacity="0.9"/>
</svg>
