<svg width="19" height="20" fill="none" xmlns="http://www.w3.org/2000/svg"><path d="M17.733 3.96a2.331 2.331 0 0 0-.806-.606 2.382 2.382 0 0 0-.992-.215H3.312l-.033-.268a2.273 2.273 0 0 0-.77-1.443A2.373 2.373 0 0 0 .955.85H.781a.79.79 0 0 0-.552.223.755.755 0 0 0 0 1.08.79.79 0 0 0 .552.223h.173c.191 0 .376.069.519.193a.758.758 0 0 1 .256.48l1.075 8.93a3.788 3.788 0 0 0 1.282 2.405 3.955 3.955 0 0 0 2.595.965h8.153a.79.79 0 0 0 .552-.223.755.755 0 0 0 0-1.08.79.79 0 0 0-.552-.223H6.68a2.38 2.38 0 0 1-1.349-.422 2.295 2.295 0 0 1-.853-1.104h9.306c.916 0 1.802-.315 2.504-.888a3.799 3.799 0 0 0 1.338-2.251l.613-3.323a2.236 2.236 0 0 0-.507-1.874Zm-1.025 1.604-.614 3.323a2.28 2.28 0 0 1-.804 1.352 2.375 2.375 0 0 1-1.505.531H4.231l-.735-6.105h12.439a.796.796 0 0 1 .602.272.757.757 0 0 1 .17.627ZM5.465 19.165c.862 0 1.561-.683 1.561-1.526s-.699-1.527-1.561-1.527c-.863 0-1.562.684-1.562 1.527 0 .843.7 1.526 1.562 1.526Zm7.807 0c.863 0 1.562-.683 1.562-1.526s-.7-1.527-1.562-1.527c-.862 0-1.561.684-1.561 1.527 0 .843.699 1.526 1.561 1.526Z" fill="#000" fill-opacity=".8"/></svg>