<svg width="152" height="60" viewBox="0 0 152 60" fill="none" xmlns="http://www.w3.org/2000/svg">
<path d="M0 2.28053C0 1.07229 1.08107 0.142451 2.27929 0.297763C58.8327 7.6282 91.8964 7.55015 149.728 0.287349C150.924 0.137215 152 1.06604 152 2.27092V57.7923C152 58.9747 150.962 59.8971 149.785 59.7823C92.5701 54.1986 59.4941 54.1317 2.21737 59.7797C1.03978 59.8958 0 58.9732 0 57.7899V2.28053Z" fill="black"/>
<path d="M34.52 35V21H36.82V35H34.52ZM36.1 29V26.9H43.22V29H36.1ZM36.1 23.1V21H43.56V23.1H36.1ZM49.577 35.2C48.6437 35.2 47.797 34.98 47.037 34.54C46.277 34.0867 45.6704 33.48 45.217 32.72C44.777 31.96 44.557 31.1133 44.557 30.18C44.557 29.2467 44.777 28.4067 45.217 27.66C45.6704 26.9133 46.277 26.32 47.037 25.88C47.797 25.4267 48.6437 25.2 49.577 25.2C50.5237 25.2 51.377 25.42 52.137 25.86C52.897 26.3 53.497 26.9 53.937 27.66C54.3904 28.4067 54.617 29.2467 54.617 30.18C54.617 31.1133 54.3904 31.96 53.937 32.72C53.497 33.48 52.897 34.0867 52.137 34.54C51.377 34.98 50.5237 35.2 49.577 35.2ZM49.577 33.08C50.1237 33.08 50.6037 32.96 51.017 32.72C51.4437 32.4667 51.7704 32.12 51.997 31.68C52.237 31.24 52.357 30.74 52.357 30.18C52.357 29.62 52.237 29.1267 51.997 28.7C51.757 28.2733 51.4304 27.94 51.017 27.7C50.6037 27.4467 50.1237 27.32 49.577 27.32C49.0437 27.32 48.5637 27.4467 48.137 27.7C47.7237 27.94 47.397 28.2733 47.157 28.7C46.9304 29.1267 46.817 29.62 46.817 30.18C46.817 30.74 46.9304 31.24 47.157 31.68C47.397 32.12 47.7237 32.4667 48.137 32.72C48.5637 32.96 49.0437 33.08 49.577 33.08ZM56.4466 35V20.6H58.6466V35H56.4466ZM61.095 35V20.6H63.295V35H61.095ZM70.1434 35.2C69.2101 35.2 68.3634 34.98 67.6034 34.54C66.8434 34.0867 66.2368 33.48 65.7834 32.72C65.3434 31.96 65.1234 31.1133 65.1234 30.18C65.1234 29.2467 65.3434 28.4067 65.7834 27.66C66.2368 26.9133 66.8434 26.32 67.6034 25.88C68.3634 25.4267 69.2101 25.2 70.1434 25.2C71.0901 25.2 71.9434 25.42 72.7034 25.86C73.4634 26.3 74.0634 26.9 74.5034 27.66C74.9568 28.4067 75.1834 29.2467 75.1834 30.18C75.1834 31.1133 74.9568 31.96 74.5034 32.72C74.0634 33.48 73.4634 34.0867 72.7034 34.54C71.9434 34.98 71.0901 35.2 70.1434 35.2ZM70.1434 33.08C70.6901 33.08 71.1701 32.96 71.5834 32.72C72.0101 32.4667 72.3368 32.12 72.5634 31.68C72.8034 31.24 72.9234 30.74 72.9234 30.18C72.9234 29.62 72.8034 29.1267 72.5634 28.7C72.3234 28.2733 71.9968 27.94 71.5834 27.7C71.1701 27.4467 70.6901 27.32 70.1434 27.32C69.6101 27.32 69.1301 27.4467 68.7034 27.7C68.2901 27.94 67.9634 28.2733 67.7234 28.7C67.4968 29.1267 67.3834 29.62 67.3834 30.18C67.3834 30.74 67.4968 31.24 67.7234 31.68C67.9634 32.12 68.2901 32.4667 68.7034 32.72C69.1301 32.96 69.6101 33.08 70.1434 33.08ZM79.5786 35L75.7186 25.4H77.9986L80.5986 32.38L79.9186 32.4L82.4586 25.4H83.7386L86.2786 32.4L85.5986 32.38L88.1986 25.4H90.4786L86.6186 35H85.3386L82.7386 28.36H83.4586L80.8586 35H79.5786ZM101.561 35.2C100.507 35.2 99.5606 34.96 98.7206 34.48C97.8806 34 97.214 33.3467 96.7206 32.52C96.2406 31.68 96.0006 30.7333 96.0006 29.68V21H98.3006V29.66C98.3006 30.34 98.4406 30.9333 98.7206 31.44C99.014 31.9333 99.4073 32.32 99.9006 32.6C100.394 32.8667 100.947 33 101.561 33C102.187 33 102.741 32.8667 103.221 32.6C103.701 32.32 104.081 31.9333 104.361 31.44C104.641 30.9333 104.781 30.3467 104.781 29.68V21H107.081V29.7C107.081 30.7533 106.841 31.6933 106.361 32.52C105.881 33.3467 105.227 34 104.401 34.48C103.574 34.96 102.627 35.2 101.561 35.2ZM112.809 35.2C112.276 35.2 111.763 35.1333 111.269 35C110.776 34.8533 110.323 34.6533 109.909 34.4C109.496 34.1333 109.136 33.8133 108.829 33.44L110.229 32.04C110.563 32.4267 110.943 32.72 111.369 32.92C111.809 33.1067 112.303 33.2 112.849 33.2C113.343 33.2 113.716 33.1267 113.969 32.98C114.223 32.8333 114.349 32.62 114.349 32.34C114.349 32.0467 114.229 31.82 113.989 31.66C113.749 31.5 113.436 31.3667 113.049 31.26C112.676 31.14 112.276 31.02 111.849 30.9C111.436 30.78 111.036 30.62 110.649 30.42C110.276 30.2067 109.969 29.92 109.729 29.56C109.489 29.2 109.369 28.7333 109.369 28.16C109.369 27.5467 109.509 27.02 109.789 26.58C110.083 26.14 110.489 25.8 111.009 25.56C111.543 25.32 112.176 25.2 112.909 25.2C113.683 25.2 114.363 25.34 114.949 25.62C115.549 25.8867 116.049 26.2933 116.449 26.84L115.049 28.24C114.769 27.8933 114.449 27.6333 114.089 27.46C113.729 27.2867 113.316 27.2 112.849 27.2C112.409 27.2 112.069 27.2667 111.829 27.4C111.589 27.5333 111.469 27.7267 111.469 27.98C111.469 28.2467 111.589 28.4533 111.829 28.6C112.069 28.7467 112.376 28.8733 112.749 28.98C113.136 29.0867 113.536 29.2067 113.949 29.34C114.376 29.46 114.776 29.6333 115.149 29.86C115.536 30.0733 115.849 30.3667 116.089 30.74C116.329 31.1 116.449 31.5733 116.449 32.16C116.449 33.0933 116.123 33.8333 115.469 34.38C114.816 34.9267 113.929 35.2 112.809 35.2Z" fill="white" fill-opacity="0.9"/>
</svg>
