<svg width="174" height="130" viewBox="0 0 174 130" fill="none" xmlns="http://www.w3.org/2000/svg">
<path fill-rule="evenodd" clip-rule="evenodd" d="M56.1008 0.366416C54.8372 1.48454 54.5467 3.89922 55.4505 5.77209C56.0438 7.00147 57.5605 8.488 59.1834 9.43059L60.4709 10.1785L58.2141 11.3594C53.4799 13.8367 51.2059 15.9372 49.3607 19.5375C47.993 22.2063 47.4443 24.9368 47.5843 28.3792C47.806 33.8336 49.685 38.015 53.9769 42.6059C55.487 44.2211 55.5775 44.3529 55.3864 44.6576C55.2741 44.8368 54.9914 45.2911 54.7584 45.6672C52.11 49.9414 54.2069 55.6317 59.384 58.2189C63.4458 60.2489 69.381 60.576 74.1636 59.0334C76.9053 58.149 79.309 56.6704 81.1088 54.761C81.9996 53.8159 83.7097 51.3427 83.5592 51.2173C83.5343 51.1966 83.3651 51.1018 83.1832 51.0065C82.8807 50.848 82.805 50.905 82.3003 51.6713C81.0679 53.5424 78.9594 55.0085 76.1944 55.9167C70.857 57.6698 64.2039 57.8794 60.359 56.4154C58.7025 55.7848 57.8543 55.2825 56.8641 54.346C55.6069 53.1572 54.9847 52.0877 54.683 50.5975C54.4808 49.5976 54.4711 49.2446 54.6235 48.4116C54.8064 47.4106 55.4054 46.0967 56.0298 45.3263L56.3677 44.9093L57.4988 45.6032C62.5614 48.7093 68.2923 50.0432 73.0423 49.2209C75.6166 48.7752 78.1415 47.7492 80.5731 46.1606C87.6495 41.5373 91.7332 33.5529 91.7332 24.3401C91.7332 17.4662 89.5426 11.6851 85.3289 7.43842C81.4485 3.52763 76.5449 1.5423 70.7703 1.54412C67.9978 1.54503 65.8549 1.87392 61.8768 2.90876C57.9294 3.93555 56.9488 3.84862 56.4775 2.43002C56.2557 1.76206 56.3239 1.45491 56.8271 0.852148C57.1806 0.42888 57.1827 0.410643 56.9077 0.159873C56.64 -0.0843609 56.5982 -0.0735707 56.1008 0.366416ZM2 3.31258C2 3.66457 2.06063 3.68554 3.57297 3.85697C6.4669 4.18525 7.73734 4.70959 8.40227 5.85021C8.70842 6.37531 8.71159 6.54948 8.75789 25.2257C8.79197 38.9495 8.75789 44.2903 8.63226 44.8768C8.28675 46.4917 6.97695 47.196 3.69664 47.531L2 47.7042V48.1296V48.5549H13.884C20.8159 48.5549 26.6133 48.4882 27.7964 48.395C33.6995 47.9295 37.9492 46.2308 40.5913 43.2807C41.6022 42.1519 42.5829 40.3371 42.9562 38.904C43.3227 37.4972 43.3973 35.017 43.1139 33.6607C42.8131 32.2205 41.8868 30.327 40.9712 29.2801C38.7051 26.6891 34.4947 25.0075 29.2593 24.6021C28.5334 24.5459 27.9397 24.4499 27.9397 24.3886C27.9397 24.3272 28.3638 24.2289 28.8822 24.1699C31.3037 23.8945 34.213 23.0635 36.0754 22.1148C39.7968 20.2195 41.8752 16.874 41.602 13.2192C41.2007 7.84862 37.7076 4.79348 30.3527 3.38006C28.6634 3.05542 28.2721 3.04539 15.3092 2.99676L2 2.9466V3.31258ZM92.9397 3.32276C92.9397 3.65849 93.0139 3.69238 93.9577 3.78691C97.3339 4.12507 98.6488 4.64348 99.3149 5.89884L99.6508 6.532V25.7577C99.6508 43.8191 99.6347 45.0129 99.3855 45.4724C98.7295 46.6819 97.4123 47.2535 94.6363 47.5333L92.9397 47.7042V48.1296V48.5549H104.477H116.014V48.1749C116.014 47.9033 115.932 47.795 115.728 47.795C114.775 47.795 112.246 47.4346 111.449 47.1851C110.444 46.8706 109.843 46.4092 109.417 45.6244C109.172 45.1724 109.152 44.4151 109.152 35.6364V26.1376L111.46 26.1742C115.138 26.2326 116.696 26.751 118.43 28.4933C119.586 29.6557 120.428 31.1805 121.207 33.5254C121.675 34.9357 121.773 35.1097 122.115 35.1525L122.499 35.2007V25.6817V16.1626L122.103 16.2108C121.75 16.2536 121.662 16.3997 121.283 17.5738C119.936 21.751 117.87 23.9562 114.678 24.6243C114.043 24.7573 112.624 24.8705 111.36 24.8892L109.152 24.9218V14.511V4.1003L113.526 4.10911C117.51 4.11732 118.013 4.14756 119.181 4.4494C121.326 5.00383 122.813 5.85963 124.386 7.44298C126.359 9.42922 127.953 12.0056 129.996 16.5123C131.007 18.7446 131.022 18.7665 131.509 18.7665H132L131.996 17.8166C131.993 17.0985 131.577 3.19373 131.552 2.99843C131.55 2.97746 122.861 2.96044 112.244 2.96044H92.9397V3.32276ZM25.9037 4.39377C28.8234 5.04775 30.7404 6.88961 31.489 9.76054C31.8742 11.2381 32.0561 14.3438 31.8632 16.1498C31.5454 19.1235 30.6701 21.0599 29.107 22.2464C27.3888 23.5509 25.6801 23.9211 21.3416 23.9286L18.2877 23.9339V13.958V3.98205L21.5679 4.06975C23.6752 4.12613 25.2255 4.24194 25.9037 4.39377ZM62.7773 10.8723C63.6306 11.1028 64.9082 11.2308 67.9803 11.3931C70.2198 11.5115 72.5506 11.7147 73.1599 11.8448C79.2444 13.1433 84.0095 18.7021 85.3469 26.0616C85.7115 28.0676 85.7069 32.2704 85.3378 34.3446C84.2515 40.4499 81.1186 45.0471 76.5766 47.2013C74.5647 48.1555 73.146 48.4511 71.0065 48.3617C68.8894 48.2734 67.8372 48.0196 66.1705 47.1951C64.5802 46.4083 63.189 45.2262 62.0315 43.6782C61.0965 42.4277 61.0916 42.416 61.4429 42.2642C61.6376 42.18 62.6114 42.1077 63.6067 42.1034C65.2804 42.0963 65.484 42.1276 66.315 42.5197C67.3701 43.0176 68.1166 43.564 68.4568 44.0872C68.6862 44.44 68.6822 44.483 68.3897 44.799C68.0867 45.1263 68.0858 45.1444 68.3546 45.4765L68.6307 45.8178L69.9969 44.3631C73.7167 40.4021 76.2274 36.5024 77.132 33.2807C77.5641 31.7416 77.5909 29.3668 77.1928 27.8854C76.7704 26.3141 75.7225 24.4675 74.1746 22.566C72.238 20.1875 71.2713 18.7808 70.8024 17.6592C70.4681 16.8594 70.4084 16.4935 70.4124 15.2709C70.4157 14.31 70.5 13.6092 70.6646 13.1754L70.9118 12.5236L70.437 12.7955C69.6863 13.2251 67.9337 14.9478 67.2157 15.9618C66.3045 17.2487 65.4024 19.2118 65.021 20.7385C64.5786 22.5091 64.674 24.9613 65.2562 26.7855C66.0939 29.4099 67.2169 31.491 68.9483 33.6276C71.0926 36.2734 71.3428 36.6549 71.5301 37.5642C71.7411 38.5885 71.5865 39.5494 71.0059 40.8208L70.6163 41.6739L69.0722 41.125C67.572 40.5918 67.4674 40.5765 65.4165 40.5853C63.3258 40.5944 63.1715 40.6193 60.725 41.342C60.4385 41.4266 60.3309 41.2494 59.6363 39.5471C57.4583 34.2087 56.9683 31.4217 57.0852 25.038C57.2013 18.7027 57.6985 16.7512 60.3383 12.2716C60.8918 11.3325 61.4124 10.5647 61.4954 10.5653C61.5783 10.566 62.1552 10.7042 62.7773 10.8723ZM26.8086 25.5183C30.2586 26.5106 32.3159 28.729 33.1617 32.3688C33.5831 34.182 33.5512 38.955 33.1047 40.9018C32.3408 44.2324 30.6676 46.0548 27.5693 46.9305C26.667 47.1855 25.8877 47.2414 22.3973 47.3009L18.2877 47.3709V36.247V25.1228L22.0957 25.1905C25.0827 25.2435 26.0989 25.3142 26.8086 25.5183Z" fill="white" fill-opacity="0.9"/>
<circle cx="21" cy="109" r="20" stroke="white" stroke-width="2"/>
<circle cx="153" cy="109" r="20" stroke="white" stroke-width="2"/>
<path d="M146.288 100C144.905 100 144 100.91 144 102.107C144 103.277 144.878 104.213 146.235 104.213H146.261C147.672 104.213 148.55 103.277 148.55 102.107C148.523 100.91 147.672 100 146.288 100Z" fill="white"/>
<path d="M144.239 105.882H148.283V118.075H144.238L144.239 105.882Z" fill="white"/>
<path d="M158.21 105.594C156.028 105.594 154.565 107.648 154.565 107.648V105.88H150.521V118.073H154.565V111.264C154.565 110.9 154.591 110.536 154.698 110.275C154.991 109.547 155.656 108.793 156.773 108.793C158.237 108.793 158.822 109.911 158.822 111.55V118.073H162.867V111.082C162.867 107.337 160.871 105.594 158.21 105.594Z" fill="white"/>
<path d="M17.132 116.879C24.4901 116.879 28.5139 110.77 28.5139 105.473C28.5139 105.3 28.5104 105.127 28.5026 104.955C29.2855 104.388 29.9612 103.685 30.4981 102.879C29.7813 103.199 29.0099 103.414 28.2008 103.511C29.0267 103.014 29.6608 102.229 29.9599 101.293C29.1746 101.76 28.3155 102.089 27.4197 102.266C26.6897 101.487 25.6503 101 24.4995 101C22.2905 101 20.4989 102.795 20.4989 105.008C20.4989 105.323 20.5341 105.629 20.6027 105.922C17.2779 105.754 14.3296 104.159 12.3568 101.734C12.0134 102.326 11.8152 103.014 11.8152 103.749C11.8152 105.139 12.5215 106.367 13.5954 107.085C12.9391 107.065 12.3226 106.885 11.7836 106.584C11.783 106.601 11.783 106.617 11.783 106.635C11.783 108.577 13.1619 110.198 14.9926 110.565C14.6488 110.659 14.294 110.706 13.9377 110.706C13.6804 110.706 13.4295 110.681 13.1858 110.634C13.695 112.226 15.1719 113.385 16.9228 113.418C15.5536 114.493 13.8288 115.134 11.9543 115.134C11.6318 115.134 11.3131 115.115 11 115.078C12.7705 116.215 14.8728 116.879 17.1321 116.879" fill="white"/>
<circle cx="87" cy="109" r="21" fill="white" fill-opacity="0.9"/>
<path d="M89.6303 100.058C90.5376 100.079 91.1638 100.213 91.7081 100.412C92.2858 100.617 92.8059 100.94 93.2416 101.369C93.6837 101.787 94.0311 102.298 94.2561 102.861C94.4773 103.401 94.6368 104.019 94.6956 104.926C94.758 105.84 94.774 106.13 94.8221 108.451C94.8703 110.772 94.8663 111.062 94.8453 111.975C94.8241 112.884 94.6904 113.511 94.4918 114.057C94.2871 114.636 93.9645 115.157 93.5367 115.593C93.1191 116.036 92.6096 116.384 92.0475 116.61C91.5086 116.832 90.8918 116.991 89.9863 117.05C89.0739 117.113 88.7842 117.129 86.4681 117.178C84.152 117.226 83.8618 117.222 82.9512 117.201C82.0439 117.18 81.4177 117.046 80.8733 116.847C80.2957 116.642 79.7755 116.315 79.3399 115.89C78.8978 115.472 78.5504 114.961 78.3254 114.398C78.1042 113.858 77.9446 113.24 77.8859 112.333C77.8268 111.422 77.8109 111.132 77.7628 108.811C77.7146 106.49 77.7185 106.2 77.7397 105.287C77.7608 104.378 77.8944 103.751 78.0932 103.206C78.3006 102.633 78.6252 102.11 79.0461 101.67C79.467 101.231 79.9749 100.884 80.5373 100.652C81.0762 100.431 81.6931 100.271 82.5987 100.212C83.5076 100.153 83.7974 100.137 86.1135 100.088C88.4297 100.04 88.7197 100.037 89.6303 100.058ZM82.6971 101.743C81.8647 101.797 81.4178 101.947 81.1202 102.07C80.383 102.373 79.8054 102.976 79.5342 103.727C79.4238 104.03 79.2933 104.487 79.274 105.319C79.2526 106.221 79.2483 106.492 79.2956 108.772C79.343 111.053 79.3585 111.327 79.4173 112.224C79.4711 113.058 79.6204 113.506 79.7433 113.804C79.8877 114.172 80.1113 114.504 80.4003 114.772C80.6828 115.05 81.0205 115.26 81.3932 115.39C81.6956 115.5 82.1518 115.631 82.9823 115.65C83.8829 115.672 84.1531 115.676 86.4293 115.628C88.7055 115.581 88.9785 115.565 89.8741 115.506C90.7065 115.452 91.1535 115.302 91.451 115.179C91.8181 115.035 92.1502 114.811 92.4176 114.518C92.6951 114.235 92.9048 113.896 93.0336 113.523C93.144 113.22 93.2746 112.763 93.294 111.93C93.3153 111.028 93.3197 110.757 93.2724 108.477C93.225 106.193 93.2094 105.923 93.1507 105.025C93.0967 104.191 92.9474 103.743 92.8246 103.445C92.6803 103.078 92.4567 102.745 92.1677 102.477C91.8852 102.199 91.5474 101.989 91.1746 101.86C90.8723 101.749 90.4162 101.618 89.5855 101.599C88.6849 101.578 88.4149 101.573 86.1387 101.621C83.8625 101.669 83.5961 101.684 82.6971 101.743L82.6971 101.743Z" fill="black"/>
<path d="M90.6709 108.535C90.7212 110.96 88.7992 112.967 86.3797 113.018C83.9602 113.069 81.9565 111.143 81.9062 108.719C81.8559 106.295 83.7779 104.287 86.1975 104.236C88.617 104.186 90.6206 106.111 90.6709 108.535ZM83.4459 108.687C83.4785 110.259 84.778 111.508 86.3477 111.475C87.9174 111.443 89.1639 110.14 89.1313 108.568C89.0986 106.995 87.7992 105.746 86.2295 105.779C84.6598 105.812 83.4133 107.114 83.4459 108.687Z" fill="black"/>
<path d="M90.73 102.943C90.165 102.955 89.7165 103.423 89.7282 103.989C89.74 104.555 90.2076 105.005 90.7726 104.993C91.3377 104.981 91.7861 104.513 91.7744 103.947C91.7626 103.381 91.2951 102.931 90.73 102.943L90.73 102.943Z" fill="black"/>
</svg>
