<svg width="152" height="60" fill="none" xmlns="http://www.w3.org/2000/svg"><path d="M0 2.28C0 1.073 1.081.143 2.28.299c56.553 7.33 89.616 7.252 147.448-.01C150.924.137 152 1.065 152 2.27v55.521c0 1.183-1.038 2.105-2.215 1.99-57.215-5.583-90.29-5.65-147.568-.002C1.04 59.896 0 58.973 0 57.79V2.28Z" fill="#000"/><path d="M31.52 37V23h2.3v14h-2.3Zm1.58 0v-2.1h7.32V37H33.1Zm13.244.2c-.96 0-1.827-.213-2.6-.64a5.011 5.011 0 0 1-1.82-1.8c-.44-.76-.66-1.613-.66-2.56 0-.947.22-1.793.66-2.54a4.904 4.904 0 0 1 1.78-1.8c.76-.44 1.6-.66 2.52-.66.893 0 1.68.207 2.36.62.693.413 1.233.98 1.62 1.7.4.72.6 1.54.6 2.46 0 .16-.013.327-.04.5-.013.16-.04.34-.08.54h-7.88v-1.8h6.74l-.82.72c-.027-.587-.14-1.08-.34-1.48-.2-.4-.487-.707-.86-.92-.36-.213-.807-.32-1.34-.32-.56 0-1.047.12-1.46.36a2.45 2.45 0 0 0-.96 1.02c-.227.427-.34.94-.34 1.54 0 .6.12 1.127.36 1.58.24.453.58.807 1.02 1.06.44.24.947.36 1.52.36.493 0 .947-.087 1.36-.26a2.84 2.84 0 0 0 1.08-.76l1.4 1.42a4.49 4.49 0 0 1-1.7 1.24 5.42 5.42 0 0 1-2.12.42Zm6.224-.2v-9.6h2.2V37h-2.2Zm2.2-5.34-.76-.38c0-1.213.266-2.193.8-2.94.546-.76 1.366-1.14 2.46-1.14.48 0 .913.087 1.3.26.386.173.746.453 1.08.84l-1.44 1.48a1.517 1.517 0 0 0-.58-.4c-.214-.08-.46-.12-.74-.12-.614 0-1.12.193-1.52.58-.4.387-.6.993-.6 1.82ZM67.292 37v-5.54c0-.64-.207-1.167-.62-1.58-.4-.413-.92-.62-1.56-.62-.426 0-.806.093-1.14.28a1.995 1.995 0 0 0-.78.78c-.187.333-.28.713-.28 1.14l-.86-.48c0-.733.16-1.38.48-1.94a3.45 3.45 0 0 1 1.32-1.34 3.75 3.75 0 0 1 1.92-.5c.72 0 1.36.187 1.92.56.56.36 1 .833 1.32 1.42.32.573.48 1.173.48 1.8V37h-2.2Zm-6.58 0v-9.6h2.2V37h-2.2Zm15.32 0V23h1.6l5.82 9.58h-1.04l5.82-9.58h1.6v14h-2.3v-9.96l.52.14-4.32 7.1h-1.6l-4.32-7.1.52-.14V37h-2.3Zm20.936.2c-.934 0-1.78-.22-2.54-.66a5.173 5.173 0 0 1-1.82-1.82c-.44-.76-.66-1.607-.66-2.54s.22-1.773.66-2.52a5.062 5.062 0 0 1 1.82-1.78c.76-.453 1.606-.68 2.54-.68.946 0 1.8.22 2.56.66.76.44 1.36 1.04 1.8 1.8.453.747.68 1.587.68 2.52s-.227 1.78-.68 2.54a5.01 5.01 0 0 1-1.8 1.82c-.76.44-1.614.66-2.56.66Zm0-2.12c.546 0 1.026-.12 1.44-.36.426-.253.753-.6.98-1.04.24-.44.36-.94.36-1.5s-.12-1.053-.36-1.48a2.616 2.616 0 0 0-.98-1c-.414-.253-.894-.38-1.44-.38-.534 0-1.014.127-1.44.38-.414.24-.74.573-.98 1-.227.427-.34.92-.34 1.48 0 .56.113 1.06.34 1.5.24.44.566.787.98 1.04.426.24.906.36 1.44.36Zm6.869 1.92v-9.6h2.2V37h-2.2Zm2.2-5.34-.76-.38c0-1.213.267-2.193.8-2.94.547-.76 1.367-1.14 2.46-1.14.48 0 .914.087 1.3.26.387.173.747.453 1.08.84l-1.44 1.48a1.509 1.509 0 0 0-.58-.4 2.1 2.1 0 0 0-.74-.12c-.613 0-1.12.193-1.52.58-.4.387-.6.993-.6 1.82Zm10.112 5.54c-.96 0-1.827-.213-2.6-.64a5.009 5.009 0 0 1-1.82-1.8c-.44-.76-.66-1.613-.66-2.56 0-.947.22-1.793.66-2.54a4.902 4.902 0 0 1 1.78-1.8c.76-.44 1.6-.66 2.52-.66.893 0 1.68.207 2.36.62.693.413 1.233.98 1.62 1.7.4.72.6 1.54.6 2.46 0 .16-.014.327-.04.5-.014.16-.04.34-.08.54h-7.88v-1.8h6.74l-.82.72c-.027-.587-.14-1.08-.34-1.48a2.13 2.13 0 0 0-.86-.92c-.36-.213-.807-.32-1.34-.32-.56 0-1.047.12-1.46.36-.414.24-.734.58-.96 1.02-.227.427-.34.94-.34 1.54 0 .6.12 1.127.36 1.58.24.453.58.807 1.02 1.06.44.24.946.36 1.52.36.493 0 .946-.087 1.36-.26a2.85 2.85 0 0 0 1.08-.76l1.4 1.42a4.498 4.498 0 0 1-1.7 1.24c-.667.28-1.374.42-2.12.42Z" fill="#fff" fill-opacity=".9"/></svg>