<svg width="90" height="42" fill="none" xmlns="http://www.w3.org/2000/svg"><path fill-rule="evenodd" clip-rule="evenodd" d="M37.454.256c-.874.783-1.075 2.473-.45 3.784.41.861 1.461 1.902 2.585 2.561l.89.524-1.562.827c-3.277 1.734-4.851 3.204-6.129 5.724-.947 1.868-1.326 3.78-1.23 6.19.154 3.817 1.455 6.744 4.426 9.958 1.045 1.13 1.108 1.223.976 1.436l-.435.707c-1.833 2.992-.382 6.975 3.202 8.786 2.812 1.421 6.921 1.65 10.232.57 1.898-.619 3.563-1.654 4.809-2.99.616-.662 1.8-2.393 1.696-2.48a3.287 3.287 0 0 0-.26-.148c-.21-.111-.262-.072-.611.465-.854 1.31-2.313 2.336-4.228 2.972-3.695 1.227-8.3 1.374-10.963.349-1.146-.442-1.734-.793-2.42-1.449-.87-.832-1.3-1.58-1.51-2.624-.14-.7-.146-.947-.04-1.53.126-.7.541-1.62.973-2.16l.234-.292.783.486c3.505 2.174 7.473 3.108 10.761 2.533 1.782-.312 3.53-1.03 5.214-2.143 4.899-3.236 7.726-8.825 7.726-15.274 0-4.812-1.517-8.858-4.434-11.831C55.003 2.469 51.608 1.08 47.61 1.08c-1.92 0-3.403.23-6.157.955-2.733.719-3.412.658-3.738-.335-.153-.468-.106-.683.242-1.104.245-.297.246-.31.056-.485-.185-.171-.214-.163-.559.144ZM0 2.32c0 .246.042.26 1.089.38 2.003.23 2.883.598 3.343 1.396.212.368.214.49.247 13.563.023 9.607 0 13.345-.087 13.756-.24 1.13-1.146 1.623-3.417 1.858L0 33.393v.595h8.227c4.8 0 8.813-.046 9.632-.111 4.087-.326 7.029-1.516 8.858-3.58.7-.79 1.379-2.061 1.637-3.064.254-.985.306-2.721.11-3.67-.209-1.009-.85-2.334-1.484-3.067-1.569-1.814-4.484-2.99-8.108-3.274-.503-.04-.914-.107-.914-.15s.294-.112.653-.153c1.676-.193 3.69-.775 4.98-1.439 2.576-1.326 4.015-3.668 3.826-6.227-.278-3.759-2.696-5.898-7.788-6.887-1.17-.227-1.44-.234-10.415-.268L0 2.063v.256Zm62.958.007c0 .235.052.259.705.325 2.337.237 3.248.6 3.709 1.478l.232.443V18.03c0 12.643-.01 13.48-.183 13.8-.454.847-1.366 1.247-3.288 1.443l-1.175.12v.595h15.975v-.266c0-.19-.057-.266-.198-.266-.66 0-2.411-.252-2.963-.427-.696-.22-1.112-.543-1.406-1.092-.17-.316-.184-.847-.184-6.992v-6.649l1.598.026c2.546.04 3.625.404 4.825 1.623.8.814 1.384 1.881 1.923 3.523.324.987.391 1.109.629 1.139l.265.034V11.313l-.274.034c-.244.03-.305.132-.567.954-.933 2.924-2.364 4.467-4.573 4.935-.44.093-1.422.172-2.297.186l-1.529.022V2.87l3.028.006c2.759.006 3.107.027 3.915.239 1.485.388 2.515.987 3.604 2.095 1.366 1.39 2.47 3.194 3.883 6.349.7 1.562.711 1.578 1.048 1.578H90l-.003-.665c-.002-.503-.29-10.236-.307-10.373-.002-.015-6.017-.027-13.367-.027H62.958v.254Zm-46.41.75c2.022.457 3.35 1.747 3.868 3.756.266 1.035.392 3.209.258 4.473-.22 2.082-.825 3.437-1.908 4.268-1.19.913-2.372 1.172-5.376 1.177l-2.114.004V2.787l2.271.062c1.459.04 2.532.12 3.002.227Zm25.53 4.533c.59.161 1.475.25 3.602.364 1.55.083 3.164.225 3.586.316 4.212.91 7.51 4.8 8.437 9.952.252 1.404.249 4.346-.007 5.798-.752 4.274-2.92 7.492-6.065 9-1.393.668-2.375.875-3.856.812-1.466-.062-2.194-.24-3.348-.816-1.101-.551-2.064-1.379-2.866-2.462-.647-.876-.65-.884-.407-.99.135-.059.809-.11 1.498-.113 1.158-.005 1.3.017 1.875.292.73.348 1.247.73 1.483 1.097.158.247.156.277-.047.498-.21.23-.21.242-.024.474l.191.24.946-1.019c2.575-2.772 4.313-5.502 4.94-7.757.299-1.078.317-2.74.041-3.777-.292-1.1-1.017-2.393-2.089-3.724-1.34-1.665-2.01-2.65-2.334-3.435-.232-.56-.273-.816-.27-1.671.002-.673.06-1.164.174-1.467l.171-.457-.328.19c-.52.302-1.734 1.508-2.23 2.217-.631.901-1.256 2.275-1.52 3.344-.306 1.24-.24 2.956.163 4.233.58 1.837 1.357 3.294 2.556 4.79 1.484 1.851 1.658 2.118 1.787 2.755.146.717.04 1.39-.363 2.28l-.27.597-1.068-.384c-1.039-.374-1.111-.384-2.531-.378-1.448.006-1.555.023-3.248.53-.199.059-.273-.065-.754-1.257-1.508-3.737-1.847-5.688-1.766-10.156.08-4.435.424-5.801 2.252-8.937.383-.657.744-1.195.801-1.194.057 0 .457.097.888.215ZM17.175 17.863c2.389.694 3.813 2.247 4.398 4.795.292 1.27.27 4.61-.039 5.973-.529 2.332-1.687 3.607-3.832 4.22-.625.179-1.164.218-3.58.26l-2.846.049V17.586l2.636.047c2.068.038 2.772.087 3.263.23Z" fill="#000" fill-opacity=".9"/></svg>