<svg width="46" height="52" fill="none" xmlns="http://www.w3.org/2000/svg"><path d="M43.637 5.998c-2.917 14.33-2.863 24.808.102 40.084.494 2.546-1.426 4.918-3.976 4.918H6.735c-2.666 0-4.623-2.59-3.945-5.242 3.66-14.322 3.657-24.767-.054-39.553C2.074 3.568 4.026 1 6.68 1h32.975c2.574 0 4.507 2.42 3.982 4.998Z" stroke="#000" stroke-width="2"/><path d="M31.016 27.406h-6.61v6.597a.994.994 0 0 1-.982.997h-.846a.996.996 0 0 1-.984-.997v-6.597h-6.61a.984.984 0 0 1-.984-.982v-.851c0-.543.442-.98.985-.98h6.61v-6.621c0-.543.44-.973.984-.973h.845c.543 0 .983.43.983.973v6.621h6.609c.543 0 .985.437.985.98v.85a.984.984 0 0 1-.985.983Z" fill="#000" fill-opacity=".9"/></svg>