<svg width="116" height="46" fill="none" xmlns="http://www.w3.org/2000/svg"><path d="M21.878 30.18c-.996 0-1.842-.18-2.538-.54-.696-.36-1.32-.888-1.872-1.584l1.404-1.404c.348.504.762.9 1.242 1.188.48.276 1.092.414 1.836.414.696 0 1.248-.144 1.656-.432.42-.288.63-.684.63-1.188 0-.42-.108-.762-.324-1.026a2.41 2.41 0 0 0-.864-.648 6.992 6.992 0 0 0-1.17-.468c-.42-.144-.846-.3-1.278-.468-.42-.18-.81-.402-1.17-.666a2.968 2.968 0 0 1-.846-1.026c-.216-.42-.324-.954-.324-1.602 0-.744.18-1.374.54-1.89.372-.528.87-.93 1.494-1.206.624-.276 1.32-.414 2.088-.414.828 0 1.566.162 2.214.486.66.324 1.194.738 1.602 1.242l-1.404 1.404c-.36-.408-.738-.708-1.134-.9-.384-.204-.828-.306-1.332-.306-.624 0-1.116.126-1.476.378-.348.252-.522.606-.522 1.062 0 .384.108.696.324.936.216.228.498.426.846.594.36.156.75.306 1.17.45.432.144.858.306 1.278.486.432.18.822.414 1.17.702.36.276.648.636.864 1.08.216.444.324 1.002.324 1.674 0 1.128-.402 2.022-1.206 2.682-.792.66-1.866.99-3.222.99ZM34.022 30v-4.986c0-.576-.186-1.05-.558-1.422-.36-.372-.828-.558-1.404-.558-.384 0-.726.084-1.026.252-.3.168-.534.402-.702.702-.168.3-.252.642-.252 1.026l-.774-.432c0-.66.144-1.242.432-1.746a3.102 3.102 0 0 1 1.188-1.206c.516-.3 1.092-.45 1.728-.45.648 0 1.224.144 1.728.432.504.288.9.69 1.188 1.206.288.504.432 1.092.432 1.764V30h-1.98ZM28.1 30V17.04h1.98V30H28.1Zm13.874.18a4.48 4.48 0 0 1-2.286-.594 4.656 4.656 0 0 1-1.638-1.638 4.48 4.48 0 0 1-.594-2.286c0-.84.198-1.596.594-2.268a4.556 4.556 0 0 1 1.638-1.602 4.377 4.377 0 0 1 2.286-.612c.852 0 1.62.198 2.304.594a4.372 4.372 0 0 1 1.62 1.62c.408.672.612 1.428.612 2.268 0 .84-.204 1.602-.612 2.286a4.51 4.51 0 0 1-1.62 1.638c-.684.396-1.452.594-2.304.594Zm0-1.908c.492 0 .924-.108 1.296-.324.384-.228.678-.54.882-.936.216-.396.324-.846.324-1.35 0-.504-.108-.948-.324-1.332a2.354 2.354 0 0 0-.882-.9c-.372-.228-.804-.342-1.296-.342-.48 0-.912.114-1.296.342a2.354 2.354 0 0 0-.882.9c-.204.384-.306.828-.306 1.332 0 .504.102.954.306 1.35.216.396.51.708.882.936.384.216.816.324 1.296.324Zm10.809 1.908c-.66 0-1.248-.138-1.764-.414a3.276 3.276 0 0 1-1.224-1.17 3.251 3.251 0 0 1-.432-1.674v-2.484c0-.624.15-1.182.45-1.674.3-.492.708-.876 1.224-1.152a3.52 3.52 0 0 1 1.746-.432c.78 0 1.482.204 2.106.612a4.14 4.14 0 0 1 1.494 1.62c.372.672.558 1.434.558 2.286 0 .84-.186 1.602-.558 2.286a4.173 4.173 0 0 1-1.494 1.602 3.847 3.847 0 0 1-2.106.594Zm-.324-1.872c.48 0 .9-.108 1.26-.324.372-.228.66-.54.864-.936.216-.396.324-.852.324-1.368 0-.516-.108-.972-.324-1.368a2.202 2.202 0 0 0-.864-.918c-.36-.228-.78-.342-1.26-.342s-.906.114-1.278.342c-.372.216-.66.522-.864.918-.204.396-.306.852-.306 1.368 0 .516.102.972.306 1.368.204.396.492.708.864.936.372.216.798.324 1.278.324ZM48.157 33.6V21.36h1.98v2.322l-.342 2.106.342 2.088V33.6h-1.98ZM62.472 30V17.4h1.44l.63 2.376V30h-2.07Zm8.73 0-7.542-9.846.252-2.754 7.542 9.846L71.202 30Zm0 0-.63-2.214V17.4h2.07V30h-1.44Zm7.862.18a4.48 4.48 0 0 1-2.286-.594 4.656 4.656 0 0 1-1.638-1.638 4.48 4.48 0 0 1-.594-2.286c0-.84.198-1.596.594-2.268a4.556 4.556 0 0 1 1.638-1.602 4.377 4.377 0 0 1 2.286-.612c.852 0 1.62.198 2.304.594a4.372 4.372 0 0 1 1.62 1.62c.408.672.612 1.428.612 2.268 0 .84-.204 1.602-.612 2.286a4.51 4.51 0 0 1-1.62 1.638c-.684.396-1.452.594-2.304.594Zm0-1.908c.492 0 .924-.108 1.296-.324.384-.228.678-.54.882-.936.216-.396.324-.846.324-1.35 0-.504-.108-.948-.324-1.332a2.354 2.354 0 0 0-.882-.9c-.372-.228-.804-.342-1.296-.342-.48 0-.912.114-1.296.342a2.354 2.354 0 0 0-.882.9c-.204.384-.306.828-.306 1.332 0 .504.102.954.306 1.35.216.396.51.708.882.936.384.216.816.324 1.296.324ZM87.556 30l-3.474-8.64h2.052l2.34 6.282-.612.018 2.285-6.3H91.3l2.286 6.3-.611-.018 2.34-6.282h2.052L93.89 30h-1.15l-2.34-5.976h.647L88.707 30h-1.151Z" fill="#fff" fill-opacity=".9"/><path d="M2.148 1.29c42.745 5.538 68.005 5.478 111.708-.01.61-.077 1.144.4 1.144.992v41.52c0 .58-.515 1.053-1.115.995-43.234-4.22-68.486-4.27-111.769-.003-.6.06-1.116-.413-1.116-.995V2.282c0-.594.536-1.072 1.148-.992Z" stroke="#fff" stroke-width="2"/></svg>